<?xml version="1.0" standalone="no"?><!DOCTYPE svg PUBLIC "-//W3C//DTD SVG 1.1//EN" "http://www.w3.org/Graphics/SVG/1.1/DTD/svg11.dtd"><svg t="1633585232071" class="icon" viewBox="0 0 1024 1024" version="1.1" xmlns="http://www.w3.org/2000/svg" p-id="7760" xmlns:xlink="http://www.w3.org/1999/xlink" width="48" height="48"><defs><style type="text/css"></style></defs><path d="M725.295583 0.016H42.680917c-11.781977 0-21.343958 9.545981-21.343959 21.327958v874.642292c0 2.249996 0.359999 4.531991 1.077998 6.687987 1.155998 3.499993 12.889975 35.339931 65.591872 65.183873 65.701872 37.249927 165.291677 56.12389 295.989422 56.12389s230.27355-18.875963 295.989422-56.12389c52.685897-29.843942 64.435874-61.68388 65.591872-65.183873 0.717999-2.155996 1.093998-4.437991 1.093998-6.687987V21.343958c0-11.779977-9.561981-21.327958-21.375959-21.327958z" fill="#E6E9ED" p-id="7761"></path><path d="M149.332708 128.01175h469.343084v341.315333H149.332708z" fill="#A0D468" p-id="7762"></path><path d="M128.00475 106.683792v383.98725h511.983V106.683792H128.00475zM597.299833 448.001125H170.674667V149.339708H597.299833v298.661417z" fill="#8CC153" p-id="7763"></path><path d="M341.326333 895.98625h-42.655916c-11.779977 0-21.341958-9.561981-21.341959-21.311958 0-11.811977 9.561981-21.375958 21.341959-21.375959h42.655916c11.779977 0 21.341958 9.561981 21.341959 21.375959 0 11.749977-9.561981 21.311958-21.341959 21.311958zM469.322083 895.98625h-42.655916c-11.781977 0-21.341958-9.561981-21.341959-21.311958 0-11.811977 9.559981-21.375958 21.341959-21.375959h42.655916c11.779977 0 21.341958 9.561981 21.341959 21.375959 0 11.749977-9.561981 21.311958-21.341959 21.311958z" fill="#AAB2BC" p-id="7764"></path><path d="M597.299833 661.306708c-23.499954 0-42.623917-19.123963-42.623916-42.623916 0-23.561954 19.123963-42.687917 42.623916-42.687917 23.561954 0 42.687917 19.123963 42.687917 42.687917 0 23.499954-19.123963 42.623917-42.687917 42.623916zM469.322083 746.678542c-23.531954 0-42.655917-19.155963-42.655916-42.687917 0-23.527954 19.123963-42.683917 42.655916-42.683917 23.529954 0 42.669917 19.155963 42.669917 42.683917 0 23.531954-19.139963 42.687917-42.669917 42.687917z" fill="#ED5564" p-id="7765"></path><path d="M597.299833 554.686917c-35.311931 0-63.981875 28.621944-63.981875 63.995875 0 35.311931 28.669944 63.999875 63.981875 63.999875 35.375931 0 63.997875-28.687944 63.997875-63.999875 0-35.375931-28.621944-63.995875-63.997875-63.995875z m0 85.307833c-11.749977 0-21.311958-9.561981-21.311958-21.311958 0-11.781977 9.561981-21.375958 21.311958-21.375959 11.781977 0 21.375958 9.593981 21.375959 21.375959 0 11.749977-9.593981 21.311958-21.375959 21.311958zM469.322083 639.99475c-35.343931 0-63.997875 28.655944-63.997875 63.995875 0 35.343931 28.653944 63.999875 63.997875 63.999875 35.341931 0 63.995875-28.655944 63.995875-63.999875 0-35.339931-28.653944-63.995875-63.995875-63.995875z m0 85.307833c-11.765977 0-21.327958-9.561981-21.327958-21.311958 0-11.745977 9.561981-21.307958 21.327958-21.307958 11.763977 0 21.341958 9.561981 21.341959 21.307958 0 11.749977-9.577981 21.311958-21.341959 21.311958z" fill="#DA4453" p-id="7766"></path><path d="M981.289083 530.888963h-42.623916c0-11.781977-9.561981-21.327958-21.373959-21.327958H639.98775c-11.781977 0-21.311958 9.545981-21.311958 21.327958v471.781079c0 11.749977 9.531981 21.311958 21.311958 21.311958h341.299333c11.811977 0 21.375958-9.561981 21.375959-21.311958V552.216921c0-11.779977-9.561981-21.327958-21.373959-21.327958z" fill="#656D78" p-id="7767"></path><path d="M658.673714 703.990625h303.989406V917.298208H658.673714z" fill="#FFCE54" p-id="7768"></path><path d="M381.450255 450.67312h-116.745772l121.823762-303.989406h116.761772z" fill="#FFFFFF" opacity=".1" p-id="7769"></path><path d="M128.00475 639.99475h170.665667v85.307833H128.00475z" fill="#434A54" p-id="7770"></path><path d="M170.674667 597.306833H256.0005v170.683667H170.674667z" fill="#656D78" p-id="7771"></path></svg>